<svg version="1.1" id="Layer_1" xmlns="http://www.w3.org/2000/svg" xmlns:xlink="http://www.w3.org/1999/xlink" x="0px" y="0px"
	 width="100%" viewBox="0 0 1024 1024" enable-background="new 0 0 1024 1024" xml:space="preserve">
<path fill="#000000" opacity="1.000000" stroke="none" 
	d="
M342.467773,285.529175 
	C353.044006,295.583435 363.366425,305.391968 373.688843,315.200531 
	C374.096069,314.965057 374.503326,314.729584 374.910553,314.494110 
	C373.660797,306.858154 372.478577,299.210388 371.143860,291.589325 
	C369.538483,282.422729 367.890869,273.261353 366.070709,264.135803 
	C365.527069,261.410339 366.260437,259.876129 368.609894,258.411743 
	C380.508911,250.995193 380.442108,250.969559 390.712646,260.779633 
	C400.228333,269.868683 409.811981,278.886688 419.390961,287.909149 
	C420.187836,288.659729 420.796112,289.851532 422.837616,289.538116 
	C421.323944,281.411713 419.823914,273.321503 418.308777,265.234131 
	C416.624786,256.245422 414.939423,247.256958 413.225037,238.274048 
	C412.871552,236.421860 412.425751,234.505890 414.431854,233.368835 
	C418.876556,230.849640 423.392334,228.455902 427.881836,226.009537 
	C430.896820,229.097794 430.437866,232.690903 431.032928,235.811203 
	C435.362000,258.512848 439.369049,281.276215 443.767303,303.963989 
	C444.491943,307.701874 443.496338,309.640381 440.314056,311.053925 
	C438.948456,311.660522 437.668030,312.460541 436.355499,313.184662 
	C426.538910,318.600311 426.545105,318.595276 418.210632,310.710693 
	C409.134918,302.124847 400.054749,293.543671 390.955566,284.982727 
	C389.787415,283.883728 388.493378,282.918579 386.334412,281.123993 
	C389.255707,297.293701 391.921753,312.299316 394.692261,327.285583 
	C396.183960,335.354584 396.264740,335.339661 389.020294,339.149506 
	C377.939606,344.976746 377.966339,344.948181 368.822571,336.387939 
	C353.135986,321.702423 337.397339,307.072510 321.726318,292.370483 
	C320.087280,290.832794 317.921844,289.610260 317.364868,286.368011 
	C322.155396,283.785400 327.083069,281.126923 332.012848,278.472351 
	C333.640228,277.596039 334.898041,278.363129 336.047699,279.438110 
	C338.116364,281.372375 340.159912,283.333527 342.467773,285.529175 
z"/>
<path fill="#000000" opacity="1.000000" stroke="none" 
	d="
M675.478516,268.486816 
	C683.243225,274.809082 691.023987,280.581207 698.173767,287.050690 
	C721.882202,308.503021 714.797058,345.469452 685.034302,355.906219 
	C671.247986,360.740570 658.618347,357.074524 647.312561,348.920624 
	C637.194702,341.623505 627.693665,333.474274 617.854736,325.785065 
	C615.354736,323.831268 615.738770,322.164978 617.514465,319.957489 
	C632.331970,301.536530 647.142395,283.108887 661.791565,264.554291 
	C664.284790,261.396301 666.284363,260.567627 669.355164,263.582458 
	C671.127014,265.321960 673.244019,266.709930 675.478516,268.486816 
M663.036743,294.506470 
	C656.404785,302.843750 649.772400,311.180664 643.141357,319.518677 
	C641.892090,321.089478 640.194275,322.732605 642.578430,324.576324 
	C648.485107,329.144379 653.676086,334.718536 660.715759,337.713654 
	C670.406067,341.836517 680.098633,339.406647 687.283081,331.092773 
	C694.733459,322.471222 695.961853,312.381866 690.402893,303.462494 
	C685.520508,295.628723 677.638367,291.156891 670.359985,285.458405 
	C667.834106,288.559814 665.644775,291.248016 663.036743,294.506470 
z"/>
<path fill="#000000" opacity="1.000000" stroke="none" 
	d="
M582.899475,247.922211 
	C594.957153,255.418716 599.740967,266.138367 597.744324,279.589630 
	C595.794434,292.726074 589.283508,302.847748 575.807556,306.561066 
	C563.873657,309.849487 553.098328,307.166290 543.605774,297.490570 
	C542.914490,303.743469 539.115295,301.883881 535.714783,301.238281 
	C524.686340,299.144531 524.592529,299.132874 526.779297,288.430878 
	C531.402832,265.803619 536.204712,243.212540 540.756165,220.570999 
	C541.618835,216.279724 543.427246,215.263657 547.653259,216.240250 
	C560.552490,219.221146 560.561218,219.068466 557.816406,231.822769 
	C556.848999,236.318405 556.038269,240.847763 554.935852,246.487991 
	C564.976135,242.307709 573.927185,243.252625 582.899475,247.922211 
M553.136841,287.395233 
	C554.523071,288.292572 555.827698,289.364685 557.309814,290.056519 
	C563.213989,292.812317 569.064819,291.960663 573.498657,287.842285 
	C578.293335,283.388763 580.379578,274.285736 577.917053,267.980835 
	C575.600159,262.048859 570.962158,259.366058 564.785583,259.030518 
	C558.484314,258.688171 553.739380,261.333679 551.037781,266.964630 
	C547.757446,273.802063 547.045105,280.642334 553.136841,287.395233 
z"/>
<path fill="#000000" opacity="1.000000" stroke="none" 
	d="
M719.314819,650.668335 
	C725.213074,655.841431 730.782471,660.854004 736.519531,665.666626 
	C739.152954,667.875732 739.485291,669.687378 736.842224,672.128967 
	C734.898499,673.924622 733.247620,676.056946 731.590088,678.138000 
	C729.394287,680.894775 727.187988,683.016663 723.600952,678.421387 
	C723.467651,688.834473 718.460144,695.602478 711.582581,701.295532 
	C706.389160,705.594482 700.327942,707.802612 693.657776,707.926697 
	C679.191040,708.195862 664.227600,696.143555 660.920227,681.801025 
	C657.355225,666.341125 665.278809,653.128784 683.474121,644.963928 
	C679.689453,640.580017 675.198730,637.262329 671.051453,633.605896 
	C663.426575,626.883484 662.808716,628.300598 670.214111,620.087646 
	C676.328064,613.306824 676.309143,613.269104 683.258423,619.302734 
	C695.197754,629.668762 707.123169,640.050781 719.314819,650.668335 
M688.871216,687.778381 
	C691.653320,688.867676 694.403809,689.908325 697.527771,689.280945 
	C704.146179,687.951782 709.015198,683.043945 710.241150,676.279663 
	C711.261414,670.650330 707.461304,663.984741 700.954956,659.951355 
	C696.038269,656.903442 690.902649,656.266846 685.935486,659.441040 
	C681.106567,662.526733 677.936768,666.780151 678.237854,673.003235 
	C678.573975,679.948975 682.737610,684.117676 688.871216,687.778381 
z"/>
<path fill="#000000" opacity="1.000000" stroke="none" 
	d="
M287.999939,379.811829 
	C287.446106,377.294220 287.390930,374.996307 286.500214,373.088531 
	C280.882782,361.057129 289.005615,353.139832 294.431000,344.282715 
	C296.831329,345.075256 296.753540,346.995300 297.158691,348.439331 
	C299.405273,356.446106 301.644379,364.459656 303.617432,372.536469 
	C304.559418,376.392578 305.874847,377.994812 310.439941,377.199402 
	C321.419098,375.286407 332.530884,374.125275 343.600250,372.749908 
	C345.159363,372.556152 346.860901,371.769043 349.032806,373.576660 
	C345.745148,379.119965 342.484711,384.826874 338.987366,390.384705 
	C337.958679,392.019501 335.831207,391.997772 334.002686,392.264374 
	C325.801208,393.460175 317.607941,394.712280 309.187744,395.977722 
	C309.237335,402.354523 310.690796,406.949493 316.666077,410.153473 
	C326.844666,415.611176 324.936981,414.279938 320.224274,422.807739 
	C314.554108,433.068054 315.465240,430.996460 307.522217,426.403870 
	C287.045227,414.564331 266.700378,402.496277 246.222839,390.657715 
	C242.758606,388.654907 241.527283,386.711609 244.294342,383.277771 
	C245.327499,381.995636 246.014969,380.430756 246.830856,378.978394 
	C251.051865,371.464661 251.057663,371.447266 258.676270,375.914612 
	C269.270935,382.127106 279.850342,388.365692 291.623566,395.291534 
	C290.253265,389.406525 289.182800,384.809174 287.999939,379.811829 
z"/>
<path fill="#000000" opacity="1.000000" stroke="none" 
	d="
M448.584473,760.467407 
	C441.557678,758.727295 434.964661,756.940796 428.299652,755.483704 
	C424.648987,754.685547 423.297211,753.379944 424.406647,749.323425 
	C427.812164,736.871399 425.688660,738.606567 437.550323,741.339905 
	C444.361938,742.909424 451.156250,744.598938 457.863617,746.558716 
	C461.646484,747.664062 463.225433,746.670776 464.000183,742.794312 
	C465.271454,736.433777 467.166687,730.200500 468.588684,723.866394 
	C469.279999,720.787109 470.600433,719.899597 473.835571,720.489075 
	C488.706360,723.198914 488.821381,723.126587 485.249725,737.759460 
	C480.358948,757.796997 475.242798,777.779480 470.375610,797.822632 
	C469.581604,801.092346 468.413208,802.288574 464.890900,801.392517 
	C447.953735,797.083801 430.977661,792.924744 413.982117,788.851440 
	C410.824005,788.094543 410.101135,786.645081 410.719666,783.554321 
	C412.910461,772.607422 412.842010,772.493774 423.459717,774.887878 
	C432.068848,776.829041 440.652893,778.905823 449.176819,781.188599 
	C452.668793,782.123840 454.642792,781.407776 455.327820,777.747498 
	C455.602448,776.280090 456.062714,774.847107 456.444916,773.400146 
	C459.159912,763.122681 459.160461,763.122803 448.584473,760.467407 
z"/>
<path fill="#000000" opacity="1.000000" stroke="none" 
	d="
M619.320557,694.227173 
	C626.652344,689.198792 634.331421,686.064453 642.946960,686.350708 
	C656.590942,686.803894 668.096069,696.022888 672.002625,709.181885 
	C675.955750,722.497742 671.072632,736.320251 659.567200,744.383301 
	C642.634521,756.249634 622.568420,752.592712 612.766907,736.002686 
	C610.690063,732.487305 610.685608,730.299805 614.572327,728.021057 
	C624.480530,722.211853 634.169312,716.027771 643.932068,709.971375 
	C645.444763,709.033020 647.212891,708.360535 648.251953,706.399841 
	C644.020081,702.398987 639.130737,702.441223 634.241638,703.897034 
	C628.103333,705.724915 623.046875,709.290710 620.618408,715.446411 
	C619.310181,718.762207 617.470886,719.360046 614.489014,718.151245 
	C613.873047,717.901489 613.242371,717.679871 612.604309,717.493591 
	C604.288452,715.066589 603.823853,714.021362 607.876648,706.358887 
	C610.506714,701.386414 614.420105,697.581970 619.320557,694.227173 
M647.076294,721.640991 
	C641.991150,724.898682 636.498413,727.558777 631.735291,731.418030 
	C636.763062,737.075500 643.669800,737.665894 649.864502,733.362366 
	C655.882324,729.181641 657.974365,722.735107 655.012146,717.238525 
	C652.266174,718.002258 650.108826,719.875000 647.076294,721.640991 
z"/>
<path fill="#000000" opacity="1.000000" stroke="none" 
	d="
M685.870483,373.240051 
	C691.749268,355.224091 708.799805,345.527130 725.360046,350.418732 
	C742.369202,355.442963 753.474182,373.989807 749.296509,390.520050 
	C747.143982,399.037109 741.803955,405.181702 734.596313,409.935455 
	C731.423889,412.027863 729.473694,411.553345 727.421204,408.154144 
	C721.574585,398.471344 715.377869,388.999634 709.298828,379.457703 
	C708.244629,377.802917 707.092468,376.210541 705.720886,374.201721 
	C701.808533,377.333832 701.305420,381.317749 701.908447,385.130890 
	C703.090637,392.605408 707.053223,398.554779 714.085571,401.705414 
	C717.354919,403.170166 718.130798,404.706818 717.256409,408.100952 
	C714.570618,418.526794 712.214600,419.868500 703.409912,413.299805 
	C690.326660,403.539124 683.044495,390.690430 685.870483,373.240051 
M719.842224,366.005157 
	C718.458252,366.300140 716.769958,365.868011 715.698242,368.196930 
	C720.350830,375.455902 725.177490,382.986359 730.178650,390.789124 
	C735.343018,386.459564 735.715088,381.559875 734.134094,376.654938 
	C732.087646,370.305817 727.650635,366.357483 719.842224,366.005157 
z"/>
<path fill="#000000" opacity="1.000000" stroke="none" 
	d="
M519.711853,273.339874 
	C505.468109,274.802704 491.635284,276.226318 477.319214,277.699677 
	C478.755920,282.775757 482.114197,285.235809 486.170258,286.167480 
	C492.978394,287.731293 499.909760,287.739258 505.609528,282.867462 
	C508.545654,280.357849 510.432831,280.735077 513.232788,283.092194 
	C521.517456,290.066467 521.770935,291.671539 512.360291,297.006439 
	C498.780060,304.705078 484.739319,305.231659 471.080078,297.069794 
	C460.549530,290.777466 455.385681,277.299164 457.784576,263.918274 
	C459.824707,252.538391 469.950989,242.382278 481.840271,239.791702 
	C501.287048,235.554398 518.097229,245.208374 521.753540,263.149719 
	C522.404968,266.346161 524.889771,270.638428 519.711853,273.339874 
M476.771545,261.208862 
	C476.423462,262.569794 475.281036,263.858673 476.662292,265.814301 
	C485.368805,265.204132 494.300781,264.661774 503.579559,263.073669 
	C501.847778,257.327789 498.245972,254.395676 493.241882,253.566986 
	C486.523956,252.454498 480.771362,254.302750 476.771545,261.208862 
z"/>
<path fill="#000000" opacity="1.000000" stroke="none" 
	d="
M715.459229,583.408936 
	C727.861206,573.880249 741.359192,573.272461 753.758606,581.466553 
	C765.056763,588.932861 769.938049,602.535461 766.125427,616.682373 
	C762.537476,629.995911 754.735718,639.510376 740.969727,643.229553 
	C722.631775,648.183960 695.749390,631.537842 703.397034,602.985596 
	C705.427795,595.403748 709.277039,588.882202 715.459229,583.408936 
M749.331055,617.721741 
	C752.557434,611.381287 752.173340,605.276733 747.004456,600.313965 
	C741.670288,595.192627 735.221802,592.777649 727.768433,595.516785 
	C721.746826,597.729736 717.314697,605.634338 718.649841,611.688843 
	C720.421143,619.720886 726.086975,623.699280 733.616272,625.237793 
	C740.197510,626.582520 745.307434,623.929749 749.331055,617.721741 
z"/>
<path fill="#000000" opacity="1.000000" stroke="none" 
	d="
M749.972168,521.937012 
	C749.965637,513.324158 749.965637,505.202454 749.965637,497.073761 
	C744.733521,497.221375 740.619812,500.943207 739.649231,506.617798 
	C738.543152,513.084839 738.351807,519.649902 742.786987,525.222656 
	C744.557251,527.446960 744.164246,529.081787 742.184814,530.735229 
	C741.675598,531.160522 741.230652,531.662903 740.758179,532.131897 
	C733.704651,539.134216 732.102722,538.986145 727.624451,529.698730 
	C721.413818,516.818665 721.861511,503.816986 728.837830,491.419830 
	C735.541016,479.507996 749.913879,474.195557 763.898926,477.750366 
	C776.784058,481.025604 786.676270,493.080353 787.321838,506.293823 
	C788.340515,527.145142 776.145813,541.678284 757.193787,542.199219 
	C751.167786,542.364868 750.786133,541.949585 750.607178,535.885986 
	C750.474731,531.397766 750.193542,526.913879 749.972168,521.937012 
M762.400452,495.894501 
	C759.989502,499.169952 761.503845,502.891296 761.335083,506.386292 
	C761.061279,512.053589 761.261353,517.743713 761.261353,523.681274 
	C768.971313,521.762207 772.332581,517.956360 772.815979,511.754150 
	C773.452148,503.592255 770.642822,499.018646 762.400452,495.894501 
z"/>
<path fill="#000000" opacity="1.000000" stroke="none" 
	d="
M238.680328,515.274841 
	C240.834503,498.945953 249.491608,491.140106 265.346558,490.723053 
	C275.168030,490.464722 284.999115,490.346130 294.804260,489.786407 
	C299.725800,489.505524 301.527771,491.452301 301.175354,496.112488 
	C301.050171,497.767792 301.127350,499.447235 301.226044,501.108887 
	C301.449524,504.872528 301.422974,508.404755 295.431000,507.715912 
	C303.309143,516.100037 303.583984,525.478394 301.429108,535.002625 
	C299.378601,544.065674 292.575348,549.222900 283.958160,549.333740 
	C274.992157,549.448975 269.087982,544.775146 266.201965,535.490112 
	C264.134827,528.839539 264.956512,521.922913 264.086823,515.167236 
	C263.879944,513.560120 264.421051,511.817535 263.098541,510.192261 
	C258.531769,510.204010 255.868393,512.841003 254.422089,516.926086 
	C252.088028,523.518616 253.850494,529.729858 256.502441,535.791199 
	C257.226349,537.445801 258.193756,538.993896 259.152710,540.783691 
	C256.102692,543.993103 252.167206,545.428711 248.517502,547.244934 
	C246.143951,548.426147 245.276581,546.266113 244.429062,544.713623 
	C240.440109,537.406799 238.428406,529.594482 238.640732,521.239136 
	C238.687286,519.407043 238.662582,517.573181 238.680328,515.274841 
M285.531982,530.364563 
	C292.640228,525.618103 288.766388,512.455200 282.879608,510.083160 
	C280.774811,509.235046 278.602264,508.801941 276.644470,509.846558 
	C274.655365,510.907867 275.474518,513.078613 275.582581,514.832520 
	C275.766144,517.810181 276.007721,520.786560 276.319427,523.753540 
	C276.919891,529.468140 278.960114,531.093750 285.531982,530.364563 
z"/>
<path fill="#000000" opacity="1.000000" stroke="none" 
	d="
M386.746094,705.467896 
	C381.797363,707.022705 378.884369,710.345520 376.507965,714.294922 
	C372.044403,721.712952 367.441681,729.050415 363.137329,736.559265 
	C361.513336,739.392273 359.987335,739.784912 357.173615,738.219910 
	C344.600952,731.227051 344.503479,731.248413 351.871460,718.816406 
	C359.256378,706.355835 366.875153,694.033264 374.196259,681.535767 
	C376.144684,678.209656 377.979523,677.339722 381.194031,679.810242 
	C383.026672,681.218750 385.124573,682.333496 387.219238,683.338196 
	C390.724426,685.019470 392.673798,687.156616 389.378387,691.555969 
	C398.815491,690.200867 406.234070,692.975281 412.814087,698.284668 
	C421.075775,704.950989 424.301575,714.841614 420.584686,724.612610 
	C415.640228,737.610718 407.073364,748.655212 400.126190,760.574707 
	C399.081543,762.367126 397.582489,762.405640 395.868011,761.350891 
	C392.606415,759.344360 389.345215,757.326965 385.987915,755.489441 
	C383.220673,753.974792 383.296143,752.250854 384.804779,749.797485 
	C389.775299,741.713989 394.641937,733.565430 399.460876,725.390259 
	C402.055054,720.989441 404.426605,716.256226 401.051086,711.393677 
	C397.792084,706.698853 392.960968,704.632263 386.746094,705.467896 
z"/>
<path fill="#000000" opacity="1.000000" stroke="none" 
	d="
M325.191467,607.928345 
	C329.761108,616.194763 333.052307,624.454956 333.375977,633.711853 
	C333.496887,637.169250 332.254059,638.720581 328.793121,638.394653 
	C328.628448,638.379089 328.460052,638.397339 328.293701,638.406067 
	C318.831573,638.903748 318.865570,638.899780 317.776642,629.683289 
	C317.100830,623.963135 315.177551,618.644287 311.875397,613.929871 
	C310.289764,611.666077 308.397919,608.675049 305.143890,610.037292 
	C301.664154,611.494080 303.004547,614.968933 303.678650,617.550110 
	C305.190979,623.340881 307.389771,628.935364 308.551697,634.844055 
	C309.876862,641.582825 308.752228,647.523621 303.084625,651.847595 
	C296.994324,656.494080 290.326843,657.231140 283.368378,653.780334 
	C276.963196,650.603943 272.885559,645.165100 269.466248,639.154785 
	C265.887085,632.863586 263.542938,626.141541 262.685333,618.919800 
	C262.278442,615.493652 263.291077,613.426514 267.152771,613.491455 
	C268.637360,613.516541 270.129822,613.179199 271.615967,612.986267 
	C275.421692,612.492065 277.216492,613.565857 277.550262,617.980774 
	C278.029938,624.325500 280.331360,630.324646 284.420563,635.392761 
	C285.983887,637.330322 287.877869,639.508179 290.714233,638.076721 
	C293.553925,636.643738 292.939575,633.810303 292.297760,631.410278 
	C290.750824,625.625244 288.783875,619.947449 287.370636,614.132996 
	C285.641876,607.020264 286.605499,600.477295 293.001129,595.810974 
	C299.616180,590.984497 306.883667,590.959656 313.979553,595.555359 
	C318.703491,598.614807 322.198395,602.799500 325.191467,607.928345 
z"/>
<path fill="#000000" opacity="1.000000" stroke="none" 
	d="
M271.092316,435.002197 
	C263.069458,439.955780 260.405029,447.570374 263.765167,455.171112 
	C266.762695,461.951508 275.999176,466.126617 283.614716,464.143524 
	C290.938507,462.236450 295.635071,455.299835 294.947693,447.446503 
	C294.785339,445.591583 294.616394,443.553070 293.323334,442.289490 
	C289.282074,438.340210 291.401398,435.625916 294.462067,432.371216 
	C301.516174,424.869934 304.208527,425.229095 308.428589,434.804382 
	C313.835419,447.072479 309.810516,465.348724 299.610748,474.844177 
	C289.331451,484.413666 275.123962,486.136780 262.579193,479.335297 
	C249.710632,472.358307 243.691864,457.454529 247.445938,441.963348 
	C249.920837,431.750641 254.911758,423.499359 264.952789,419.077393 
	C268.518555,417.507050 270.953949,417.704926 271.528473,422.379028 
	C271.870758,425.163757 272.710175,427.913696 273.572754,430.600067 
	C274.307587,432.888824 273.417419,434.075409 271.092316,435.002197 
z"/>
<path fill="#000000" opacity="1.000000" stroke="none" 
	d="
M740.412720,446.565125 
	C752.020386,447.747864 763.264160,448.945343 774.523010,449.979248 
	C778.488159,450.343384 780.960876,451.898376 781.650635,456.104706 
	C782.257446,459.804932 784.301758,463.234528 783.990723,467.557037 
	C779.719238,468.363312 775.622803,467.345123 771.601562,466.927246 
	C755.070984,465.209442 738.575195,463.159790 722.051208,461.374542 
	C719.570251,461.106506 717.928406,460.349182 717.350464,457.845795 
	C717.313477,457.685242 717.230835,457.535522 717.172668,457.379578 
	C712.012634,443.530792 711.957886,443.465027 723.251465,434.066772 
	C735.530701,423.848297 747.919556,413.761475 760.279175,403.639923 
	C761.410095,402.713806 762.675720,401.952240 764.393372,400.755890 
	C767.236328,406.270660 768.305786,411.950592 769.864197,417.425232 
	C770.343628,419.109314 768.453735,419.882874 767.319336,420.799377 
	C758.775940,427.701813 750.211914,434.578857 741.678589,441.493683 
	C740.044006,442.818237 738.516113,444.274414 736.553040,446.011322 
	C738.143738,446.240326 739.099304,446.377899 740.412720,446.565125 
z"/>
<path fill="#000000" opacity="1.000000" stroke="none" 
	d="
M276.899658,571.756714 
	C279.870575,570.977966 282.449402,570.312134 285.013184,569.592712 
	C292.358307,567.531616 294.379456,563.416199 290.503510,557.016602 
	C288.555145,553.799622 289.490601,552.517761 292.049377,550.651855 
	C300.416595,544.550476 302.060059,544.962891 305.927734,554.736206 
	C310.483917,566.249268 308.915466,576.167419 301.581055,582.315002 
	C298.574219,584.835327 295.030426,586.242493 291.315521,587.274536 
	C285.062988,589.011597 278.813171,590.762329 272.531982,592.390747 
	C269.574493,593.157471 267.560120,594.218933 269.071320,597.820435 
	C270.608948,601.484924 269.100433,603.440002 265.332184,604.064392 
	C263.861755,604.308105 262.391296,604.713806 261.002411,605.255005 
	C257.656342,606.558838 255.441467,605.788025 255.019836,602.004944 
	C254.584885,598.102173 252.711014,597.675293 249.197052,598.600464 
	C239.413651,601.176514 239.364532,601.029480 236.657166,591.133240 
	C236.004364,588.747070 235.438904,586.336975 234.875900,584.106750 
	C236.792130,581.861694 239.297714,581.970764 241.441330,581.222046 
	C243.611115,580.464233 246.039001,580.398010 248.041397,578.758606 
	C248.142654,575.240295 246.768875,571.977966 245.955093,568.615540 
	C245.327820,566.023682 245.543365,564.395752 248.691055,563.415039 
	C258.698822,560.296753 258.800842,560.102173 261.604401,570.178894 
	C262.683258,574.056702 264.300385,575.563416 268.308411,574.069641 
	C270.948761,573.085571 273.763855,572.570312 276.899658,571.756714 
z"/>
<path fill="#000000" opacity="1.000000" stroke="none" 
	d="
M310.013550,660.991089 
	C319.279480,653.641663 328.330414,646.590454 337.212677,639.332825 
	C340.149536,636.933167 342.301453,636.725952 344.440704,640.123169 
	C345.499176,641.804199 346.822418,643.322510 348.066498,644.882080 
	C353.016052,651.086853 352.989136,651.040527 346.938171,655.813782 
	C327.884277,670.844360 308.802277,685.840515 289.873779,701.027710 
	C286.689850,703.582275 284.995850,703.058594 282.645447,700.087097 
	C274.073517,689.249878 274.015198,689.346802 284.691620,681.003418 
	C293.075104,674.451904 301.388336,667.810425 310.013550,660.991089 
z"/>
<path fill="#000000" opacity="1.000000" stroke="none" 
	d="
M367.309448,665.724426 
	C373.266144,671.406860 373.248169,671.389526 367.749390,677.099792 
	C351.114990,694.373962 334.428802,711.599365 317.932281,729.004395 
	C314.951721,732.149048 313.066833,732.279663 309.884033,729.225281 
	C300.373047,720.097900 300.217743,720.203430 309.249725,710.781799 
	C324.346344,695.033875 339.488129,679.329163 354.599823,663.595642 
	C359.656555,658.330872 359.640991,658.316284 364.892151,663.396179 
	C365.610382,664.091003 366.331970,664.782349 367.309448,665.724426 
z"/>
<path fill="#000000" opacity="1.000000" stroke="none" 
	d="
M766.375061,572.782959 
	C751.820984,569.793518 737.686096,566.858398 723.518799,564.089661 
	C719.664856,563.336426 717.888062,561.800110 719.401184,557.678528 
	C720.079224,555.831421 720.220032,553.786133 720.596741,551.829224 
	C722.013062,544.471558 722.005676,544.501831 729.080688,545.925110 
	C752.362732,550.608582 775.651794,555.257812 798.933411,559.943359 
	C805.602966,561.285645 805.595825,561.321533 804.331604,567.979370 
	C802.080017,579.836060 802.080811,579.831543 790.242859,577.498718 
	C782.424133,575.957886 774.602478,574.432312 766.375061,572.782959 
z"/>
<path fill="#000000" opacity="1.000000" stroke="none" 
	d="
M603.002563,770.985718 
	C598.918884,772.686523 595.490112,773.380310 594.224792,767.241760 
	C590.647644,773.019409 586.110718,776.474243 580.789612,778.998230 
	C577.916260,780.361145 576.006653,779.866760 575.259827,776.545166 
	C575.077698,775.735046 574.770203,774.953918 574.548096,774.151855 
	C573.706909,771.115051 571.901611,767.939697 572.299866,765.072083 
	C572.757263,761.777832 577.192627,762.437195 579.663025,760.884460 
	C585.603455,757.150513 588.085876,751.814880 586.040955,744.617371 
	C583.633057,736.142090 580.847839,727.766479 577.973755,719.434692 
	C576.717896,715.794006 577.002197,713.880493 581.191101,712.479126 
	C594.234192,708.115662 594.126709,707.940918 598.342285,721.056152 
	C602.668518,734.515747 607.113647,747.937073 611.465881,761.388367 
	C613.424988,767.443054 613.379028,767.454834 607.131042,769.540833 
	C605.868591,769.962280 604.616028,770.413452 603.002563,770.985718 
z"/>
<path fill="#000000" opacity="1.000000" stroke="none" 
	d="
M556.922668,738.739014 
	C552.785217,742.860168 548.299927,744.354065 543.083191,742.179810 
	C538.813477,740.400269 536.863342,736.920959 536.612793,732.410034 
	C536.327087,727.266907 538.268433,723.284363 543.052368,721.121826 
	C547.549072,719.089233 551.833008,719.772400 555.539856,723.064453 
	C559.149902,726.270508 560.276794,731.706299 558.403687,736.285950 
	C558.093689,737.043945 557.584106,737.720337 556.922668,738.739014 
z"/>
</svg>