<svg version="1.1" id="Layer_1" xmlns="http://www.w3.org/2000/svg" xmlns:xlink="http://www.w3.org/1999/xlink" x="0px" y="0px"
	 width="100%" viewBox="0 0 1024 1024" enable-background="new 0 0 1024 1024" xml:space="preserve">
<path fill="#000000" opacity="1.000000" stroke="none" 
	d="
M357.216553,315.658142 
	C371.254669,328.190033 385.021729,340.478821 399.442322,353.351013 
	C399.664581,347.536560 398.063629,342.842560 397.242310,338.087646 
	C394.835052,324.151794 392.157715,310.262756 389.625977,296.348145 
	C389.245941,294.259399 388.709656,292.252258 391.131958,290.606445 
	C394.119171,288.576874 396.312256,288.751740 399.030731,291.205292 
	C411.025055,302.030579 423.177368,312.680939 435.291565,323.373016 
	C437.391449,325.226410 439.583374,326.975525 442.449280,329.371887 
	C441.030090,317.359924 438.262024,306.493744 436.205536,295.506897 
	C434.829590,288.155823 433.215149,280.849548 431.818237,273.502167 
	C430.687134,267.552826 431.299530,266.731750 438.121277,264.761932 
	C439.772186,272.542633 441.514526,280.269806 443.038513,288.039825 
	C446.013489,303.207489 448.786621,318.415131 451.833435,333.568024 
	C452.486115,336.814026 451.870422,338.773499 448.959290,340.610413 
	C445.826172,342.587372 443.909882,341.514679 441.559204,339.426605 
	C428.359650,327.701752 415.065338,316.083588 401.798279,304.434814 
	C400.952911,303.692535 400.064758,302.998962 398.181335,301.445404 
	C399.808258,310.332794 401.171265,318.067932 402.648987,325.781158 
	C404.711548,336.547211 406.799957,347.309174 409.007782,358.046082 
	C409.671051,361.271698 408.821960,363.323364 405.910675,365.059875 
	C403.042511,366.770721 401.225403,366.107117 398.920013,364.037231 
	C382.807465,349.570526 366.573608,335.238983 350.395996,320.844635 
	C349.172760,319.756226 347.695923,318.860840 347.110535,317.196075 
	C350.835144,312.244415 352.559662,311.934998 357.216553,315.658142 
z"/>
<path fill="#000000" opacity="1.000000" stroke="none" 
	d="
M682.683716,352.284637 
	C673.292053,378.652039 646.263916,386.730530 624.564392,369.874420 
	C617.472839,364.365753 610.715027,358.429199 603.693298,352.827942 
	C601.306763,350.924194 600.596558,349.416901 602.820190,346.759033 
	C616.267883,330.685364 629.636719,314.544739 642.898071,298.317108 
	C645.171814,295.534790 646.893433,295.010071 649.765808,297.506287 
	C656.418091,303.287445 663.467224,308.617310 670.040222,314.483276 
	C681.255798,324.492401 686.783752,336.626678 682.683716,352.284637 
M669.197937,359.682343 
	C677.112244,348.601624 678.001404,337.896881 671.418579,327.626617 
	C665.537537,318.451294 656.076721,313.181671 647.801453,305.910217 
	C635.635681,320.679108 623.934814,334.883606 612.003662,349.367676 
	C618.203918,355.214020 624.267578,360.397919 630.788147,364.940674 
	C644.047119,374.177979 657.979126,372.312164 669.197937,359.682343 
z"/>
<path fill="#000000" opacity="1.000000" stroke="none" 
	d="
M537.263245,264.376831 
	C537.692200,262.166382 538.115662,260.376312 538.298645,258.562042 
	C538.636536,255.212906 540.226562,254.034668 543.621643,254.674423 
	C547.150269,255.339340 547.108765,257.257233 546.490906,260.119629 
	C544.785950,268.018555 543.341003,275.973572 541.723572,284.263611 
	C558.649780,276.968262 573.630615,280.601929 580.629578,293.292358 
	C587.309937,305.405060 583.459961,322.615997 572.325562,330.414856 
	C559.926086,339.099854 545.781311,336.191437 533.751160,322.317780 
	C533.345093,323.673889 532.832581,324.874023 532.641541,326.123322 
	C532.152832,329.318604 530.148621,329.605652 527.529907,329.076599 
	C524.711060,328.507080 524.254272,326.708313 524.771790,324.249390 
	C526.822266,314.507263 528.854248,304.761200 530.881958,295.014282 
	C532.977844,284.939697 535.060730,274.862427 537.263245,264.376831 
M541.551514,320.878571 
	C542.520203,321.790680 543.412231,322.804810 544.469788,323.598572 
	C552.084473,329.314117 563.132324,328.630768 569.646423,322.087769 
	C576.549927,315.153625 577.683350,302.671997 572.117432,294.875702 
	C566.849792,287.497253 555.701965,285.074341 547.419678,289.336853 
	C537.771118,294.302582 533.443115,310.462891 541.551514,320.878571 
z"/>
<path fill="#000000" opacity="1.000000" stroke="none" 
	d="
M649.558472,608.442139 
	C646.152466,605.235291 643.069885,602.196167 639.841125,599.321228 
	C637.456726,597.198181 638.074829,595.502563 640.006897,593.490112 
	C641.806274,591.616028 643.318115,591.024170 645.446655,593.038879 
	C661.997620,608.705078 678.598389,624.318542 695.165710,639.967468 
	C695.500793,640.283936 695.617798,640.831299 695.819702,641.237000 
	C692.091248,647.101685 692.091248,647.101685 685.156067,641.845459 
	C685.630615,650.895081 682.268311,658.134766 675.776855,663.973328 
	C670.745911,668.498230 664.798523,670.911560 658.070129,670.961609 
	C644.701660,671.061035 630.912231,658.005493 629.924927,644.530945 
	C628.873535,630.181580 639.791077,618.093872 656.098206,615.459656 
	C654.036804,613.233948 651.928040,610.957153 649.558472,608.442139 
M657.764526,662.682068 
	C667.727600,662.585449 675.575623,656.534607 677.725403,647.292236 
	C679.745178,638.608704 675.002808,629.643555 665.874695,624.889221 
	C653.665100,618.529724 638.470459,627.578979 638.212463,641.363586 
	C638.021851,651.547302 645.610352,660.171509 657.764526,662.682068 
z"/>
<path fill="#000000" opacity="1.000000" stroke="none" 
	d="
M354.801910,431.400208 
	C353.083069,435.644562 350.812378,435.787842 347.292938,433.763794 
	C328.254333,422.814545 309.119720,412.031647 289.972351,401.272919 
	C287.268799,399.753815 285.845825,398.405457 287.673737,395.066528 
	C289.583862,391.577393 291.548950,392.458191 294.139069,393.950134 
	C305.241211,400.344879 316.390106,406.658905 327.547668,412.956787 
	C329.101654,413.833954 330.507935,415.116821 333.173889,415.248016 
	C331.151733,406.345673 329.190308,397.683990 327.214020,389.025726 
	C326.585754,386.273315 326.149292,383.448639 325.218018,380.800140 
	C323.496704,375.904846 325.042938,372.098389 329.087555,368.089142 
	C332.925781,377.645233 333.951721,387.594574 337.497192,397.202454 
	C350.317963,395.991791 362.820679,392.798248 376.001923,391.918274 
	C374.992859,398.142303 371.846741,400.575562 366.549744,401.277313 
	C358.489288,402.345184 350.505432,403.979767 342.460114,405.179626 
	C339.811127,405.574646 338.991852,406.655029 339.709076,409.170654 
	C340.301544,411.248840 340.979706,413.341980 341.218719,415.473480 
	C341.736145,420.086975 344.257874,422.749084 348.330658,424.822937 
	C350.949249,426.156281 355.156830,426.484772 354.801910,431.400208 
z"/>
<path fill="#000000" opacity="1.000000" stroke="none" 
	d="
M480.791351,328.469666 
	C469.781738,322.398102 464.371094,311.662109 465.888367,299.430267 
	C467.249664,288.455841 474.776306,279.949066 485.476288,277.291626 
	C500.627167,273.528717 514.638916,282.312073 517.994446,297.600800 
	C518.897400,301.714996 518.265442,304.173523 513.258179,304.595398 
	C501.479248,305.587830 489.736206,307.008331 477.980682,308.274414 
	C477.019104,308.377991 475.947083,308.259674 475.256744,309.202118 
	C476.345978,319.042267 487.009460,325.653076 498.197662,323.379547 
	C502.350189,322.535736 506.229950,320.944336 509.254578,317.922089 
	C511.274475,315.903778 512.886475,315.378967 515.084839,317.620605 
	C517.528625,320.112427 516.037354,321.874084 514.186768,323.466888 
	C504.258728,332.011993 493.192352,333.539246 480.791351,328.469666 
M509.314667,295.904205 
	C506.086456,287.883606 499.768494,283.443237 491.857910,283.635315 
	C483.814667,283.830597 477.173126,288.599396 474.813934,295.873322 
	C473.257965,300.670746 474.340271,301.955994 479.253113,301.420410 
	C487.657715,300.504120 496.079407,299.742279 504.479950,298.792236 
	C506.267853,298.590027 508.701508,299.428711 509.314667,295.904205 
z"/>
<path fill="#000000" opacity="1.000000" stroke="none" 
	d="
M740.241638,497.080750 
	C745.951111,515.549866 735.859436,530.708923 716.881836,532.737122 
	C711.950317,533.264221 711.113159,532.284180 711.219971,527.290466 
	C711.472900,515.466858 711.543762,503.639252 711.670471,491.813049 
	C711.680969,490.832916 711.771973,489.790741 710.306213,488.535156 
	C703.763000,489.412750 698.723755,493.117462 696.053467,499.479248 
	C692.913940,506.959045 693.158020,514.487793 698.150940,521.278870 
	C699.833008,523.566772 700.917358,525.327759 698.060669,527.514587 
	C694.940308,529.903320 693.420288,527.548706 692.039978,525.567566 
	C685.087280,515.588196 684.907471,504.940948 690.048218,494.314575 
	C694.913147,484.258545 703.834167,479.910675 714.567932,480.086395 
	C726.270935,480.278046 735.468323,485.222046 740.241638,497.080750 
M718.106018,520.889587 
	C718.040344,523.239014 718.470459,524.662415 721.517639,524.031921 
	C729.473083,522.385803 735.390320,513.880859 734.635620,504.757538 
	C733.920715,496.115753 727.112061,489.410858 718.111328,489.252716 
	C718.111328,499.509613 718.111328,509.766357 718.106018,520.889587 
z"/>
<path fill="#000000" opacity="1.000000" stroke="none" 
	d="
M589.763428,687.752441 
	C601.794067,681.006836 613.512695,674.463318 625.252502,667.907959 
	C616.658875,654.088257 598.631958,659.079407 591.909058,669.588684 
	C591.195312,670.704346 590.526123,671.892212 590.095825,673.136353 
	C589.192810,675.747375 587.733215,676.419922 585.167603,675.215698 
	C582.576965,673.999817 582.553467,672.303223 583.381226,669.906616 
	C589.174988,653.132874 613.093262,646.170349 627.104187,657.235413 
	C637.223938,665.227417 641.085510,679.652405 636.129822,690.950745 
	C631.654785,701.153198 619.507507,707.895508 608.348206,706.314453 
	C599.608215,705.076172 593.509460,700.044617 589.084473,692.687378 
	C588.097961,691.047180 587.257690,689.370422 589.763428,687.752441 
M627.186829,674.320862 
	C618.490662,679.215027 609.841003,684.194580 601.075867,688.961792 
	C597.514343,690.898804 598.016846,692.619751 600.615967,694.917786 
	C606.002380,699.680359 614.510437,700.451111 621.119690,696.643982 
	C628.211060,692.559326 631.941711,685.003723 630.243408,677.792969 
	C629.916016,676.402710 630.387146,674.152588 627.186829,674.320862 
z"/>
<path fill="#000000" opacity="1.000000" stroke="none" 
	d="
M712.651428,406.167236 
	C711.066528,413.566437 706.394409,418.195862 701.038391,422.374786 
	C698.339417,424.480652 696.587830,424.279510 694.768555,421.103729 
	C689.304260,411.564972 683.608032,402.158081 677.923279,392.747406 
	C676.835815,390.947144 676.130920,388.789764 673.824707,387.488739 
	C668.050232,391.190491 665.861938,396.910065 666.547913,403.250885 
	C667.478699,411.853699 671.836426,418.684723 680.176636,422.124207 
	C682.723999,423.174713 684.171997,424.003784 683.132202,427.089478 
	C681.910217,430.715912 679.556946,429.823975 677.146362,428.973907 
	C667.449463,425.554382 658.915588,413.021484 658.690308,401.933685 
	C658.463013,390.748260 665.571655,380.231293 676.431091,375.915009 
	C685.781250,372.198608 694.842834,372.618591 702.831970,379.123993 
	C711.229309,385.961761 714.727234,394.918793 712.651428,406.167236 
M689.234497,381.392822 
	C686.252136,381.351135 683.257996,381.264191 680.328430,383.943909 
	C686.231140,393.973328 692.153381,404.035950 698.057434,414.067596 
	C700.552307,413.374878 701.658386,411.688599 702.782166,410.084595 
	C710.022705,399.750488 704.108704,383.372772 689.234497,381.392822 
z"/>
<path fill="#000000" opacity="1.000000" stroke="none" 
	d="
M339.643127,524.074341 
	C336.462616,532.972900 331.211121,536.778748 323.211487,536.286072 
	C316.298767,535.860413 311.518463,530.909912 309.613983,522.497437 
	C308.795441,518.881775 308.605835,515.256165 308.682953,511.592316 
	C308.760437,507.912323 308.279572,504.302856 307.507477,500.435913 
	C302.580444,499.515656 298.005493,500.361755 295.251068,504.706573 
	C288.953247,514.640991 293.799713,523.457092 298.873535,531.973694 
	C294.486847,536.995300 293.284180,537.012024 290.189453,531.654724 
	C285.631897,523.765076 283.620178,515.352234 285.732483,506.251709 
	C287.623077,498.106354 293.286530,492.558868 301.612885,491.849548 
	C312.709137,490.904266 323.856995,490.567657 334.981934,489.955200 
	C337.580505,489.812195 339.000092,490.794159 339.230835,493.586548 
	C339.578339,497.792633 337.366180,498.919861 332.447479,498.030853 
	C340.464264,505.839020 341.332428,514.463562 339.643127,524.074341 
M323.658295,527.853943 
	C329.651855,527.383850 332.099762,525.349182 333.374390,519.778076 
	C335.930328,508.606323 328.241150,498.460083 317.936768,499.309845 
	C315.844940,499.482330 314.151062,499.861816 314.586639,502.422363 
	C315.458740,507.549164 314.835663,512.767578 315.513672,517.863098 
	C316.104279,522.301941 317.073975,526.972290 323.658295,527.853943 
z"/>
<path fill="#000000" opacity="1.000000" stroke="none" 
	d="
M460.983643,735.811523 
	C475.545074,739.018127 472.347443,739.341858 475.540100,727.293640 
	C476.475525,723.763611 476.871338,720.073730 478.004944,716.617981 
	C479.099731,713.280518 477.795746,712.046875 474.818726,711.399170 
	C465.870514,709.451904 456.948334,707.384277 447.993378,705.469543 
	C445.268188,704.886841 443.164093,704.244324 444.032501,700.651550 
	C444.898865,697.067139 447.092834,697.547974 449.753967,698.156006 
	C458.356628,700.121521 467.043396,701.739929 475.594482,703.900574 
	C479.393951,704.860657 481.065918,704.104065 481.772797,700.156860 
	C482.945740,693.607666 484.658600,687.156433 485.896606,680.617126 
	C486.565063,677.086304 488.125244,675.866516 491.725647,676.727112 
	C495.167480,677.549683 495.114349,679.379456 494.458923,682.261658 
	C489.920776,702.217529 485.489594,722.198242 481.158051,742.200012 
	C480.302551,746.150513 478.992615,747.781860 474.428802,746.639954 
	C461.838287,743.489807 449.100372,740.931274 436.434967,738.075806 
	C433.827332,737.487915 431.034821,736.981201 431.994141,733.005920 
	C432.959503,729.005554 435.529083,729.993286 438.198883,730.619934 
	C445.645630,732.367554 453.111908,734.032043 460.983643,735.811523 
z"/>
<path fill="#000000" opacity="1.000000" stroke="none" 
	d="
M711.878174,567.009766 
	C721.559509,574.915222 725.524353,584.488281 721.785461,596.406311 
	C718.192566,607.858948 710.693665,615.497559 698.450500,616.691284 
	C686.707520,617.836182 677.363586,612.813293 671.047485,602.839661 
	C664.754272,592.902283 666.573059,579.321106 675.051941,570.116882 
	C683.661865,560.770447 695.867920,558.529724 707.304688,564.242432 
	C708.786072,564.982422 710.158264,565.941101 711.878174,567.009766 
M677.049988,597.234070 
	C678.383301,599.785706 680.248718,601.937561 682.540283,603.604309 
	C689.617554,608.751892 697.212830,610.609558 705.410645,606.383423 
	C711.641968,603.171021 716.541199,594.221863 715.530334,587.637512 
	C714.220581,579.106567 708.971497,573.678162 701.062012,570.762451 
	C693.517883,567.981384 686.554871,569.157227 680.882324,574.972412 
	C674.859924,581.146301 673.527466,588.480530 677.049988,597.234070 
z"/>
<path fill="#000000" opacity="1.000000" stroke="none" 
	d="
M438.549072,672.044189 
	C438.544250,677.255554 436.927368,681.575256 434.514526,685.652161 
	C430.018280,693.249207 425.429688,700.793823 421.075836,708.471619 
	C419.398102,711.430237 417.763794,712.048767 414.714661,710.251770 
	C411.604309,708.418457 412.180298,706.713501 413.729492,704.201233 
	C418.274597,696.830872 422.803772,689.438538 426.988464,681.861206 
	C432.363586,672.128418 430.736694,664.924194 422.469940,659.912598 
	C413.753662,654.628601 404.836395,656.369080 398.968567,665.145508 
	C394.068817,672.473938 389.748688,680.198181 385.350891,687.850037 
	C383.515625,691.043213 381.617859,690.901550 378.889160,689.060730 
	C376.411560,687.389221 376.790405,685.723389 378.069244,683.589600 
	C385.860901,670.588989 393.612061,657.564026 401.351654,644.532349 
	C402.621307,642.394592 403.766052,640.478455 406.766418,642.291382 
	C409.256561,643.795959 410.724823,645.336487 408.630615,648.202148 
	C408.276703,648.686584 408.229370,649.395020 408.023804,650.053040 
	C428.613129,651.559204 437.422455,657.836609 438.549072,672.044189 
z"/>
<path fill="#000000" opacity="1.000000" stroke="none" 
	d="
M321.771393,622.482300 
	C312.873871,615.919556 308.954010,607.019043 307.709381,596.727844 
	C307.414856,594.292480 307.640961,592.015442 311.073090,591.867798 
	C314.495331,591.720398 315.320251,593.537415 315.326691,596.504700 
	C315.340759,602.988098 318.162659,608.433533 322.240295,613.200623 
	C324.773071,616.161560 328.096405,617.822144 331.997101,615.700684 
	C335.662933,613.706848 336.162201,610.315552 335.200562,606.625488 
	C333.650238,600.676514 331.860565,594.787964 330.395782,588.818970 
	C329.091553,583.504211 330.589203,578.906555 334.925690,575.487183 
	C339.385193,571.970764 344.287781,571.403870 349.423279,573.973389 
	C358.773499,578.651794 362.411316,587.373535 365.125061,596.620483 
	C365.908752,599.290833 366.031708,602.179138 366.252747,604.983704 
	C366.469055,607.728333 365.391785,609.288879 362.258942,609.358459 
	C358.971313,609.431458 358.652435,607.911560 358.541443,605.076721 
	C358.243042,597.455627 356.227142,590.266785 351.127228,584.336060 
	C348.629883,581.431885 345.587799,579.332886 341.493164,581.245605 
	C337.376770,583.168579 337.736603,586.964050 338.445923,590.346863 
	C339.569305,595.704346 341.389587,600.911438 342.695404,606.236023 
	C344.075745,611.864380 343.789703,617.275635 338.853088,621.257751 
	C333.657867,625.448486 327.990997,625.850952 321.771393,622.482300 
z"/>
<path fill="#000000" opacity="1.000000" stroke="none" 
	d="
M344.135529,464.797028 
	C338.436188,476.773804 328.855896,482.324860 316.245544,481.255646 
	C305.068726,480.307953 295.358154,472.320160 292.287231,461.547943 
	C289.121490,450.443024 293.968170,436.270905 302.901855,430.977692 
	C304.696136,429.914551 306.935059,427.666779 308.840027,430.869720 
	C310.340790,433.393005 310.491241,435.376678 307.334137,437.423676 
	C298.816315,442.946289 296.306305,455.153687 301.511719,463.491455 
	C306.941467,472.188568 320.450775,475.599884 329.444855,470.545044 
	C338.002380,465.735535 341.670349,453.689667 336.887177,444.841980 
	C335.199005,441.719299 335.054443,439.602997 338.293335,437.906342 
	C341.813660,436.062256 342.707825,439.318237 343.715942,441.237823 
	C347.693176,448.811035 347.111450,456.621368 344.135529,464.797028 
z"/>
<path fill="#000000" opacity="1.000000" stroke="none" 
	d="
M724.014709,419.252899 
	C727.303650,417.947021 726.956543,420.564026 727.623596,422.048584 
	C728.786499,424.636627 727.728577,426.491943 725.706665,428.101166 
	C718.031006,434.210144 710.370605,440.338501 702.716309,446.474304 
	C699.039429,449.421753 695.388794,452.401978 690.708435,456.191406 
	C705.798157,458.533051 719.495667,460.789764 733.239014,462.719818 
	C738.020264,463.391327 740.604797,465.251343 739.835144,470.853851 
	C733.956177,471.534851 728.355530,469.629639 722.711487,468.878143 
	C710.699341,467.278839 698.763550,465.111938 686.781311,463.276672 
	C683.813049,462.822052 682.187988,461.535950 681.291443,458.476593 
	C680.360229,455.298950 681.416138,453.481262 683.704346,451.648560 
	C697.070496,440.943054 710.392639,430.182709 724.014709,419.252899 
z"/>
<path fill="#000000" opacity="1.000000" stroke="none" 
	d="
M300.525543,562.472229 
	C301.345490,565.533386 302.983551,566.063110 305.551422,565.283691 
	C314.138092,562.677734 322.804657,560.329834 331.360504,557.629395 
	C338.325134,555.431091 340.150360,549.799255 336.165771,543.496155 
	C334.878174,541.459351 332.478943,539.692627 335.843292,537.341003 
	C339.244690,534.963501 340.904907,537.576904 342.210999,539.712708 
	C348.358978,549.766113 347.893158,561.969299 333.824219,565.762207 
	C325.326569,568.053040 316.960846,570.832275 308.467590,573.141052 
	C305.204071,574.028137 304.027466,575.436890 305.139954,578.777039 
	C305.941162,581.182617 306.496826,583.598328 302.812103,584.608459 
	C299.188049,585.601868 298.840515,583.119751 298.354950,580.901855 
	C297.607147,577.485840 295.812958,576.510010 292.605865,577.784424 
	C291.530151,578.211914 290.362549,578.402039 289.253021,578.751709 
	C286.054077,579.759766 285.253235,577.700378 284.468781,575.263916 
	C283.669952,572.782959 284.498352,571.490662 286.873199,570.812012 
	C289.242523,570.134949 291.580719,569.348816 294.021912,568.582520 
	C294.251099,564.342407 292.406830,560.886719 291.408478,557.288818 
	C290.658539,554.586060 290.768677,552.882202 293.764771,551.931030 
	C297.125183,550.864136 297.786163,553.036255 298.453613,555.414856 
	C299.081482,557.652344 299.749878,559.878479 300.525543,562.472229 
z"/>
<path fill="#000000" opacity="1.000000" stroke="none" 
	d="
M351.557251,639.575195 
	C342.468018,646.905823 333.619812,653.969360 324.880859,661.165649 
	C322.677429,662.980103 321.138397,663.391907 319.148254,660.830078 
	C317.225952,658.355530 317.153137,656.673462 319.724243,654.611023 
	C337.387085,640.442261 355.000488,626.211304 372.556549,611.910461 
	C375.354919,609.630981 376.856567,610.950378 378.692627,613.110291 
	C380.851746,615.650269 379.737335,617.074524 377.579346,618.772461 
	C368.945526,625.565857 360.410431,632.484741 351.557251,639.575195 
z"/>
<path fill="#000000" opacity="1.000000" stroke="none" 
	d="
M344.895813,673.902344 
	C359.193512,658.969299 373.292236,644.335388 387.247314,629.565735 
	C389.524628,627.155518 391.072540,627.176331 393.426483,629.348999 
	C395.920898,631.651428 395.531219,633.260315 393.353241,635.515442 
	C378.080719,651.328613 362.908905,667.238953 347.704742,683.118164 
	C345.623138,685.292236 343.971924,687.801331 340.510010,684.336426 
	C337.213715,681.037231 339.711121,679.501221 341.610474,677.472107 
	C342.634888,676.377625 343.636902,675.262207 344.895813,673.902344 
z"/>
<path fill="#000000" opacity="1.000000" stroke="none" 
	d="
M688.981812,539.109009 
	C710.772339,544.092468 732.168701,549.024597 753.589600,553.847534 
	C756.571716,554.518982 757.982300,555.710571 757.181274,558.965820 
	C756.400146,562.140625 754.716675,562.702942 751.676208,561.995850 
	C730.134644,556.986206 708.557556,552.129578 687.000183,547.187866 
	C684.622986,546.642883 682.004517,546.463562 682.625061,542.606750 
	C683.256348,538.682922 685.323181,538.078430 688.981812,539.109009 
z"/>
<path fill="#000000" opacity="1.000000" stroke="none" 
	d="
M558.659424,719.774902 
	C567.024048,717.627197 572.201294,707.661743 569.811707,699.862610 
	C567.334656,691.778381 565.415833,683.524475 563.157837,675.371094 
	C562.360291,672.491272 562.132263,670.373230 565.880737,669.304504 
	C569.722107,668.209106 570.512756,670.334961 571.267273,673.137939 
	C575.023010,687.090454 578.838074,701.027039 582.572327,714.985229 
	C583.255188,717.537659 585.095520,720.377808 580.668884,721.799866 
	C576.515686,723.134094 575.841858,720.414124 574.934265,717.640320 
	C574.794128,717.211914 574.483154,716.839539 573.961060,715.942932 
	C571.259277,721.317871 567.365173,724.976135 562.013672,726.910217 
	C560.158813,727.580627 558.051697,728.673340 556.900208,726.000061 
	C555.929443,723.746338 554.606995,721.187012 558.659424,719.774902 
z"/>
<path fill="#000000" opacity="1.000000" stroke="none" 
	d="
M530.483154,685.373535 
	C528.519348,680.723389 529.499390,677.190491 532.986450,676.088135 
	C536.580750,674.951904 539.058655,676.533081 540.492615,679.896606 
	C541.571716,682.427795 540.601196,684.483704 538.707214,686.066772 
	C536.009155,688.322083 533.273621,688.081726 530.483154,685.373535 
z"/>
</svg>